# xmcd
#
# Track frame offsets:
#	150
#	20987
#	45034
#	69471
#	93558
#	111052
#	141726
#	165888
#
# Disc length: 2515 seconds
# Revision: 0
# Processed by: cddbd v1.5.2PL0 Copyright (c) Steve Scherf et al.
# Submitted via: dBpowerAMP V12.0
#
DISCID=6609d108
DTITLE=Shaun Kirk - The Wick Sessions
DYEAR=2013
DGENRE=Blues
TTITLE0=Every Dog Will Have Its Day
TTITLE1=Going Back To The City
TTITLE2=Find Somebody To Love
TTITLE3=Am I Wrong
TTITLE4=Smokestack Lightning
TTITLE5=Cruisin
TTITLE6=Drug Got A Hold Onto You
TTITLE7=Steam Train
EXTD=
EXTT0=
EXTT1=
EXTT2=
EXTT3=
EXTT4=
EXTT5=
EXTT6=
EXTT7=
PLAYORDER=
